# xmcd
#
# Track frame offsets:
#	150
#	26542
#	45082
#	63042
#	110612
#	128112
#	150060
#	170960
#	206807
#	223540
#	235400
#	262332
#	304842
#
# Disc length: 4308 seconds
#
# Revision: 7
# Processed by: cddbd v1.4PL0 Copyright (c) Steve Scherf et al.
# Submitted via: CDmax 2.0
#
DISCID=b210d20d
DTITLE=Various Artist - Alligator Records - 30th Anniversary Collection (Dis
DTITLE=k 2 of 2) - On the Stage
DYEAR=2001
DGENRE=Blues
TTITLE0=Lonnie Brooks - Two Headed Man
TTITLE1=Luther Allison - Soul Fixin' Man
TTITLE2=C. J. Chenier and the Red Hot Louisiana Band - Jambalaya (On the Bayou)
TTITLE3=Albert Collins and the Ice Breakers - Dyin' Flu
TTITLE4=James Cotton - When It Rains It Pours
TTITLE5=Elvin Bishop - Slow Down
TTITLE6=Saffire - the Uppity Blues Women - You Can Have My Husband
TTITLE7=Little Charlie and the Nightcats - I'll Take You Back
TTITLE8=Delbert McClinton - Maybe Someday Baby
TTITLE9=Lil' Ed and the Blues Imperials - Chicken, Gravy and Biscuits
TTITLE10=Son Seals with Elvin Bishop - Sadie
TTITLE11=Lonnie Mack - Stop
TTITLE12=(Data Track)
EXTD=LABEL =Alligator Records and Artist Mgmt., Inc.\nID =ALCD112/13\nUPC =0
EXTD=14551-1213-29\nCOPYRIGHT =2001\n*****\nTrack 13 is listed on the cover
EXTD=, but is not on the cd.\n- listing =Hound Dog Taylor and the Houserocker
EXTD=s - It's Alright\n*****\nbonus cd video track =Hound Dog Taylor and the H
EXTD=ouserockers - Taylor's Rock
EXTT0=
EXTT1=
EXTT2=
EXTT3=
EXTT4=
EXTT5=
EXTT6=
EXTT7=
EXTT8=
EXTT9=
EXTT10=
EXTT11=
EXTT12=
PLAYORDER=
